<svg id="Layer_1" data-name="Layer 1" xmlns="http://www.w3.org/2000/svg" viewBox="0 0 573.14 135"><defs><style>.cls-1,.cls-10,.cls-11,.cls-3,.cls-8{isolation:isolate;}.cls-1,.cls-12,.cls-3,.cls-8{font-size:18px;}.cls-1,.cls-7,.cls-8{fill:red;}.cls-1,.cls-10,.cls-12,.cls-3,.cls-8{font-family:FiraCode-Regular, Fira Code;}.cls-2,.cls-4,.cls-6{fill:none;stroke-miterlimit:10;}.cls-2,.cls-6{stroke:red;}.cls-10,.cls-11,.cls-12,.cls-3,.cls-5{fill:#0071bc;}.cls-4{stroke:#0071bc;}.cls-6{opacity:0.5;}.cls-11,.cls-8,.cls-9{opacity:0.15;}.cls-10,.cls-12{opacity:0.15;}.cls-10,.cls-11{font-size:18.18px;}.cls-11{font-family:FiraCode-Medium, Fira Code;font-weight:500;}</style></defs><title>sheet-after-feeding</title><text class="cls-1" transform="translate(220.02 78.73)">Target</text><text class="cls-1" transform="translate(327.02 78.73)">Target</text><text class="cls-1" transform="translate(28.02 80.22)">sheet.targets[]</text><rect class="cls-2" x="23.5" y="56.5" width="172" height="35" rx="13.9"/><text class="cls-3" transform="translate(296.99 19.6)">sheet.cursor</text><rect class="cls-4" x="289.5" y="0.5" width="141" height="26" rx="11.1"/><line class="cls-4" x1="360" y1="27" x2="360" y2="58.96"/><path class="cls-5" d="M456.5,65a30.16,30.16,0,0,0-4.76-8.55l4.76,1.72,4.75-1.72A30.13,30.13,0,0,0,456.5,65Z" transform="translate(-96.5)"/><text class="cls-3" transform="translate(4.99 125.6)">sheet.htmlElement</text><rect class="cls-4" x="0.5" y="106.5" width="195" height="26" rx="11.98"/><line class="cls-6" x1="248.5" y1="83.5" x2="248.5" y2="105.46"/><path class="cls-7" d="M345,111.5a30.16,30.16,0,0,0-4.76-8.55l4.76,1.72,4.75-1.72A30.13,30.13,0,0,0,345,111.5Z" transform="translate(-96.5)"/><text class="cls-8" transform="translate(393.2 79.9)">Target</text><text class="cls-8" transform="translate(481.2 79.9)">Target</text><text class="cls-3" transform="translate(201.56 126.01)">Untouched: </text><g class="cls-9"><line class="cls-2" x1="424.68" y1="84.17" x2="424.68" y2="106.13"/><path class="cls-7" d="M521.18,112.17a30,30,0,0,0-4.76-8.55l4.76,1.72,4.75-1.72A30.13,30.13,0,0,0,521.18,112.17Z" transform="translate(-96.5)"/></g><g class="cls-9"><line class="cls-2" x1="360" y1="84.17" x2="360" y2="106.13"/><path class="cls-7" d="M456.5,112.17a30,30,0,0,0-4.76-8.55l4.76,1.72,4.75-1.72A30.13,30.13,0,0,0,456.5,112.17Z" transform="translate(-96.5)"/></g><g class="cls-9"><line class="cls-2" x1="513.68" y1="84.17" x2="513.68" y2="106.13"/><path class="cls-7" d="M610.18,112.17a30,30,0,0,0-4.76-8.55l4.76,1.72,4.75-1.72A30.13,30.13,0,0,0,610.18,112.17Z" transform="translate(-96.5)"/></g><text class="cls-10" transform="matrix(0.99, 0, -0.17, 0.99, 411.51, 125.85)">to</text><text class="cls-11" transform="matrix(0.99, 0, -0.17, 0.99, 452.26, 125.93)">type&amp;delete</text><text class="cls-12" transform="translate(322.33 126.01)">content</text></svg>