<svg id="Layer_1" data-name="Layer 1" xmlns="http://www.w3.org/2000/svg" viewBox="0 0 791.06 703.01"><defs><style>.cls-1,.cls-11,.cls-12,.cls-13,.cls-14,.cls-16,.cls-17,.cls-18,.cls-19,.cls-20,.cls-3,.cls-8{isolation:isolate;}.cls-1,.cls-14,.cls-17,.cls-3,.cls-8{font-size:18px;}.cls-1,.cls-14,.cls-7{fill:red;}.cls-1,.cls-12,.cls-14,.cls-17,.cls-19,.cls-3,.cls-8{font-family:FiraCode-Regular, Fira Code;}.cls-11,.cls-16,.cls-18,.cls-2,.cls-21,.cls-4,.cls-9{fill:none;}.cls-2{stroke:red;}.cls-11,.cls-16,.cls-18,.cls-2,.cls-4,.cls-9{stroke-miterlimit:10;}.cls-12,.cls-13,.cls-17,.cls-19,.cls-20,.cls-3,.cls-6{fill:#0071bc;}.cls-16,.cls-4{stroke:#0071bc;}.cls-11,.cls-5{opacity:0.5;}.cls-10,.cls-8{fill:lime;}.cls-11,.cls-18,.cls-9{stroke:lime;}.cls-12,.cls-13,.cls-19,.cls-20{font-size:18.26px;}.cls-13,.cls-20{font-family:FiraCode-Medium, Fira Code;font-weight:500;}.cls-14,.cls-15,.cls-16,.cls-17,.cls-18,.cls-19,.cls-20{opacity:0.15;}</style></defs><title>sheet-execution</title><text class="cls-1" transform="translate(348.08 77.73)">Target</text><text class="cls-1" transform="translate(452.08 77.73)">Target</text><text class="cls-1" transform="translate(156.08 79.22)">sheet.targets[]</text><rect class="cls-2" x="151.56" y="55.5" width="172" height="35" rx="13.9"/><text class="cls-3" transform="translate(420.05 19.6)">sheet.cursor</text><rect class="cls-4" x="412.56" y="0.5" width="141" height="26" rx="11.1"/><g class="cls-5"><line class="cls-4" x1="483.06" y1="27" x2="483.06" y2="58.96"/><path class="cls-6" d="M483.06,65a30.16,30.16,0,0,0-4.76-8.55l4.76,1.72,4.75-1.72A30.13,30.13,0,0,0,483.06,65Z"/></g><text class="cls-3" transform="translate(328.44 123.84)">Untouched: content</text><text class="cls-3" transform="translate(133.05 124.6)">sheet.htmlElement</text><rect class="cls-4" x="128.56" y="105.5" width="195" height="26" rx="11.98"/><g class="cls-5"><line class="cls-2" x1="376.56" y1="82.5" x2="376.56" y2="104.46"/><path class="cls-7" d="M376.56,110.5a30.27,30.27,0,0,0-4.76-8.5l4.76,1.72,4.75-1.72A30.24,30.24,0,0,0,376.56,110.5Z"/></g><g class="cls-5"><line class="cls-2" x1="483.56" y1="83" x2="483.56" y2="104.96"/><path class="cls-7" d="M483.56,111a30.16,30.16,0,0,0-4.76-8.55l4.76,1.72,4.75-1.72A30.13,30.13,0,0,0,483.56,111Z"/></g><text class="cls-8" transform="translate(99.89 169.19)">sheet.commands[]</text><rect class="cls-9" x="95.56" y="147.5" width="182" height="32" rx="13.9"/><text class="cls-8" transform="translate(283.11 169.2)">Type</text><g class="cls-5"><line class="cls-9" x1="483.56" y1="164" x2="483.56" y2="135.54"/><path class="cls-10" d="M483.56,129.5a30.16,30.16,0,0,0,4.76,8.55l-4.76-1.72-4.75,1.72A30.13,30.13,0,0,0,483.56,129.5Z"/></g><line class="cls-11" x1="335.06" y1="164" x2="483.56" y2="164"/><text class="cls-1" transform="translate(348.08 251.73)">Target</text><text class="cls-1" transform="translate(452.08 251.73)">Target</text><text class="cls-1" transform="translate(520.08 251.73)">Target</text><text class="cls-1" transform="translate(608.08 251.73)">Target</text><text class="cls-1" transform="translate(517.08 77.73)">Target</text><text class="cls-1" transform="translate(605.08 77.73)">Target</text><text class="cls-1" transform="translate(156.08 253.22)">sheet.targets[]</text><rect class="cls-2" x="151.56" y="229.5" width="172" height="35" rx="13.9"/><text class="cls-3" transform="translate(490.05 193.6)">sheet.cursor</text><rect class="cls-4" x="482.56" y="174.5" width="141" height="26" rx="11.1"/><g class="cls-5"><line class="cls-4" x1="553.06" y1="201" x2="553.06" y2="232.96"/><path class="cls-6" d="M553.06,239a30.16,30.16,0,0,0-4.76-8.55l4.76,1.72,4.75-1.72A30.13,30.13,0,0,0,553.06,239Z"/></g><text class="cls-3" transform="translate(328.44 297.84)">Untouched: content</text><text class="cls-3" transform="translate(133.05 298.6)">sheet.htmlElement</text><rect class="cls-4" x="128.56" y="279.5" width="195" height="26" rx="11.98"/><g class="cls-5"><line class="cls-2" x1="376.56" y1="256.5" x2="376.56" y2="278.46"/><path class="cls-7" d="M376.56,284.5a30.27,30.27,0,0,0-4.76-8.5l4.76,1.72,4.75-1.72A30.24,30.24,0,0,0,376.56,284.5Z"/></g><g class="cls-5"><line class="cls-2" x1="483.56" y1="257" x2="483.56" y2="278.96"/><path class="cls-7" d="M483.56,285a30.16,30.16,0,0,0-4.76-8.55l4.76,1.72,4.75-1.72A30.13,30.13,0,0,0,483.56,285Z"/></g><g class="cls-5"><line class="cls-2" x1="551.56" y1="256" x2="551.56" y2="277.96"/><path class="cls-7" d="M551.56,284a30.16,30.16,0,0,0-4.76-8.55l4.76,1.72,4.75-1.72A30.13,30.13,0,0,0,551.56,284Z"/></g><text class="cls-8" transform="translate(99.89 343.19)">sheet.commands[]</text><rect class="cls-9" x="95.56" y="321.5" width="182" height="32" rx="13.9"/><text class="cls-8" transform="translate(283.11 343.2)">Type</text><g class="cls-5"><line class="cls-9" x1="550.56" y1="338" x2="550.56" y2="309.54"/><path class="cls-10" d="M550.56,303.5a30.16,30.16,0,0,0,4.76,8.55l-4.76-1.72-4.75,1.72A30.13,30.13,0,0,0,550.56,303.5Z"/></g><line class="cls-11" x1="335.06" y1="338" x2="550.56" y2="338"/><text class="cls-12" transform="matrix(0.99, 0, -0.17, 0.99, 538.39, 297.69)">to</text><text class="cls-1" transform="translate(344.08 420.73)">Target</text><text class="cls-1" transform="translate(448.08 420.73)">Target</text><text class="cls-1" transform="translate(516.08 420.73)">Target</text><text class="cls-1" transform="translate(604.08 420.73)">Target</text><text class="cls-1" transform="translate(152.08 422.22)">sheet.targets[]</text><rect class="cls-2" x="147.56" y="398.5" width="172" height="35" rx="13.9"/><text class="cls-3" transform="translate(574.05 362.6)">sheet.cursor</text><rect class="cls-4" x="566.56" y="343.5" width="141" height="26" rx="11.1"/><g class="cls-5"><line class="cls-4" x1="637.06" y1="370" x2="637.06" y2="401.96"/><path class="cls-6" d="M637.06,408a30.16,30.16,0,0,0-4.76-8.55l4.76,1.72,4.75-1.72A30.13,30.13,0,0,0,637.06,408Z"/></g><text class="cls-3" transform="translate(324.44 466.84)">Untouched: content</text><text class="cls-3" transform="translate(129.05 467.6)">sheet.htmlElement</text><rect class="cls-4" x="124.56" y="448.5" width="195" height="26" rx="11.98"/><g class="cls-5"><line class="cls-2" x1="372.56" y1="425.5" x2="372.56" y2="447.46"/><path class="cls-7" d="M372.56,453.5a30.27,30.27,0,0,0-4.76-8.5l4.76,1.72,4.75-1.72A30.24,30.24,0,0,0,372.56,453.5Z"/></g><g class="cls-5"><line class="cls-2" x1="479.56" y1="426" x2="479.56" y2="447.96"/><path class="cls-7" d="M479.56,454a30.16,30.16,0,0,0-4.76-8.55l4.76,1.72,4.75-1.72A30.13,30.13,0,0,0,479.56,454Z"/></g><g class="cls-5"><line class="cls-2" x1="547.56" y1="425" x2="547.56" y2="446.96"/><path class="cls-7" d="M547.56,453a30.16,30.16,0,0,0-4.76-8.55l4.76,1.72,4.75-1.72A30.13,30.13,0,0,0,547.56,453Z"/></g><g class="cls-5"><line class="cls-2" x1="636.56" y1="425" x2="636.56" y2="446.96"/><path class="cls-7" d="M636.56,453a30.16,30.16,0,0,0-4.76-8.55l4.76,1.72,4.75-1.72A30.13,30.13,0,0,0,636.56,453Z"/></g><text class="cls-8" transform="translate(95.89 512.19)">sheet.commands[]</text><rect class="cls-9" x="91.56" y="490.5" width="182" height="32" rx="13.9"/><text class="cls-8" transform="translate(279.11 512.2)">Type</text><g class="cls-5"><line class="cls-9" x1="636.56" y1="507" x2="636.56" y2="478.54"/><path class="cls-10" d="M636.56,472.5a30.16,30.16,0,0,0,4.76,8.55l-4.76-1.72-4.75,1.72A30.13,30.13,0,0,0,636.56,472.5Z"/></g><line class="cls-11" x1="331.06" y1="507" x2="636.56" y2="506.5"/><text class="cls-12" transform="matrix(0.99, 0, -0.17, 0.99, 534.39, 466.69)">to</text><text class="cls-13" transform="matrix(0.99, 0, -0.17, 0.99, 575.14, 466.76)">type&amp;delete</text><text class="cls-14" transform="translate(344.08 599.73)">Target</text><text class="cls-14" transform="translate(448.08 599.73)">Target</text><text class="cls-14" transform="translate(516.08 599.73)">Target</text><text class="cls-14" transform="translate(604.08 599.73)">Target</text><text class="cls-1" transform="translate(152.08 601.22)">sheet.targets[]</text><rect class="cls-2" x="147.56" y="577.5" width="172" height="35" rx="13.9"/><g class="cls-15"><text class="cls-3" transform="translate(436.05 541.6)">sheet.cursor</text></g><rect class="cls-16" x="372.56" y="522.5" width="265" height="26" rx="11.1"/><g class="cls-15"><line class="cls-4" x1="637.06" y1="549" x2="637.06" y2="580.96"/><path class="cls-6" d="M637.06,587a30.16,30.16,0,0,0-4.76-8.55l4.76,1.72,4.75-1.72A30.13,30.13,0,0,0,637.06,587Z"/></g><g class="cls-15"><line class="cls-4" x1="547.56" y1="549" x2="547.56" y2="580.96"/><path class="cls-6" d="M547.56,587a30.16,30.16,0,0,0-4.76-8.55l4.76,1.72,4.75-1.72A30.13,30.13,0,0,0,547.56,587Z"/></g><g class="cls-15"><line class="cls-4" x1="480.56" y1="548" x2="480.56" y2="579.96"/><path class="cls-6" d="M480.56,586a30.16,30.16,0,0,0-4.76-8.55l4.76,1.72,4.75-1.72A30.13,30.13,0,0,0,480.56,586Z"/></g><g class="cls-15"><line class="cls-4" x1="372.56" y1="548.89" x2="372.56" y2="580.85"/><path class="cls-6" d="M372.56,586.89a30.29,30.29,0,0,0-4.76-8.55l4.76,1.72,4.75-1.72A30.4,30.4,0,0,0,372.56,586.89Z"/></g><text class="cls-17" transform="translate(324.44 645.84)">Untouched: content</text><text class="cls-3" transform="translate(129.05 646.6)">sheet.htmlElement</text><rect class="cls-4" x="124.56" y="627.5" width="195" height="26" rx="11.98"/><g class="cls-15"><line class="cls-2" x1="372.56" y1="604.5" x2="372.56" y2="626.46"/><path class="cls-7" d="M372.56,632.5a30.27,30.27,0,0,0-4.76-8.5l4.76,1.72,4.75-1.72A30.24,30.24,0,0,0,372.56,632.5Z"/></g><g class="cls-15"><line class="cls-2" x1="479.56" y1="605" x2="479.56" y2="626.96"/><path class="cls-7" d="M479.56,633a30.16,30.16,0,0,0-4.76-8.55l4.76,1.72,4.75-1.72A30.13,30.13,0,0,0,479.56,633Z"/></g><g class="cls-15"><line class="cls-2" x1="547.56" y1="604" x2="547.56" y2="625.96"/><path class="cls-7" d="M547.56,632a30.16,30.16,0,0,0-4.76-8.55l4.76,1.72,4.75-1.72A30.13,30.13,0,0,0,547.56,632Z"/></g><g class="cls-15"><line class="cls-2" x1="636.56" y1="604" x2="636.56" y2="625.96"/><path class="cls-7" d="M636.56,632a30.16,30.16,0,0,0-4.76-8.55l4.76,1.72,4.75-1.72A30.13,30.13,0,0,0,636.56,632Z"/></g><text class="cls-8" transform="translate(95.89 691.19)">sheet.commands[]</text><rect class="cls-9" x="91.56" y="669.5" width="182" height="32" rx="13.9"/><text class="cls-8" transform="translate(279.11 691.2)">Delete</text><g class="cls-15"><line class="cls-9" x1="372.55" y1="687.32" x2="372.55" y2="658.86"/><path class="cls-10" d="M372.55,652.82a30.16,30.16,0,0,0,4.76,8.55l-4.76-1.72-4.75,1.72A30.13,30.13,0,0,0,372.55,652.82Z"/></g><line class="cls-18" x1="349.06" y1="687" x2="413.06" y2="686.5"/><g class="cls-15"><line class="cls-9" x1="479.06" y1="686" x2="479.06" y2="657.54"/><path class="cls-10" d="M479.06,651.5a30.16,30.16,0,0,0,4.76,8.55l-4.76-1.72-4.75,1.72A30.13,30.13,0,0,0,479.06,651.5Z"/></g><line class="cls-18" x1="413.06" y1="686.5" x2="636.56" y2="686.5"/><g class="cls-15"><line class="cls-9" x1="547.06" y1="687" x2="547.06" y2="658.54"/><path class="cls-10" d="M547.06,652.5a30.16,30.16,0,0,0,4.76,8.55l-4.76-1.72-4.75,1.72A30.13,30.13,0,0,0,547.06,652.5Z"/></g><g class="cls-15"><line class="cls-9" x1="636.06" y1="687" x2="636.06" y2="658.54"/><path class="cls-10" d="M636.06,652.5a30.16,30.16,0,0,0,4.76,8.55l-4.76-1.72-4.75,1.72A30.13,30.13,0,0,0,636.06,652.5Z"/></g><text class="cls-19" transform="matrix(0.99, 0, -0.17, 0.99, 534.39, 645.69)">to</text><text class="cls-20" transform="matrix(0.99, 0, -0.17, 0.99, 575.14, 645.76)">type&amp;delete</text><rect class="cls-21" y="1" width="791.06" height="702.01"/><text class="cls-8" transform="translate(572.72 670.07)">...</text><text class="cls-1" transform="translate(573.72 619.07)">...</text><text class="cls-3" transform="translate(572.72 571.02)">...</text><text class="cls-3" transform="translate(494.72 571.02)">...</text><text class="cls-3" transform="translate(413.07 571.02)">...</text><text class="cls-1" transform="translate(494.72 618.07)">...</text><text class="cls-1" transform="translate(413.06 619.07)">...</text><text class="cls-8" transform="translate(494.72 670.07)">...</text><text class="cls-8" transform="translate(413.07 670.07)">...</text></svg>