<svg id="Layer_1" data-name="Layer 1" xmlns="http://www.w3.org/2000/svg" viewBox="0 0 1040 284.2"><defs><style>.cls-1,.cls-8,.cls-9{font-size:18px;font-family:FiraCode-Regular, Fira Code;}.cls-1,.cls-6{fill:red;}.cls-2{fill:#000;}.cls-3,.cls-8{fill:lime;}.cls-4,.cls-9{fill:#0071bc;}.cls-10,.cls-11,.cls-12,.cls-5,.cls-7{fill:none;}.cls-5{stroke:red;}.cls-10,.cls-11,.cls-5,.cls-7{stroke-miterlimit:10;}.cls-7{stroke:lime;}.cls-10,.cls-11{stroke:#0071bc;}.cls-10{stroke-width:2px;}</style></defs><title>sheet-construction</title><text class="cls-1" transform="translate(183.38 93.84)">Untouched:<tspan class="cls-2" x="108" y="0"> </tspan><tspan class="cls-3" x="118.8" y="0">&lt;t&gt;</tspan><tspan x="151.2" y="0">content</tspan><tspan class="cls-2" x="226.8" y="0"> </tspan><tspan class="cls-4" x="237.6" y="0">&lt;i&gt;</tspan><tspan x="270" y="0">to</tspan><tspan class="cls-2" x="291.59" y="0"> </tspan><tspan class="cls-4" x="302.39" y="0">&lt;strong&gt;</tspan><tspan x="388.79" y="0">type&amp;delete</tspan><tspan class="cls-4" x="507.61" y="0">&lt;/strong&gt;&lt;/i&gt;</tspan><tspan class="cls-3" x="648.04" y="0">&lt;d&gt;</tspan></text><line class="cls-5" x1="230" y1="97" x2="230" y2="144.96"/><path class="cls-6" d="M324,188a30.1,30.1,0,0,0-4.76-8.55l4.76,1.72,4.75-1.72A30.31,30.31,0,0,0,324,188Z" transform="translate(-94 -37)"/><line class="cls-5" x1="375.5" y1="97" x2="375.5" y2="144.96"/><path class="cls-6" d="M469.5,188a30.1,30.1,0,0,0-4.76-8.55l4.76,1.72,4.75-1.72A30.31,30.31,0,0,0,469.5,188Z" transform="translate(-94 -37)"/><line class="cls-5" x1="462.5" y1="97" x2="462.5" y2="144.96"/><path class="cls-6" d="M556.5,188a30.1,30.1,0,0,0-4.76-8.55l4.76,1.72,4.75-1.72A30.31,30.31,0,0,0,556.5,188Z" transform="translate(-94 -37)"/><line class="cls-5" x1="626.5" y1="97" x2="626.5" y2="144.96"/><path class="cls-6" d="M720.5,188a30.1,30.1,0,0,0-4.76-8.55l4.76,1.72,4.75-1.72A30.31,30.31,0,0,0,720.5,188Z" transform="translate(-94 -37)"/><line class="cls-7" x1="318.5" y1="97.5" x2="318.5" y2="229.46"/><path class="cls-3" d="M412.5,272.5a30.1,30.1,0,0,0-4.76-8.55l4.76,1.72,4.75-1.72A30.31,30.31,0,0,0,412.5,272.5Z" transform="translate(-94 -37)"/><line class="cls-7" x1="847.5" y1="98" x2="847.5" y2="229.96"/><path class="cls-3" d="M941.5,273a30.1,30.1,0,0,0-4.76-8.55l4.76,1.72,4.75-1.72A30.31,30.31,0,0,0,941.5,273Z" transform="translate(-94 -37)"/><text class="cls-1" transform="translate(197.02 167.73)">Target</text><text class="cls-1" transform="translate(343.02 167.73)">Target</text><text class="cls-1" transform="translate(427.02 167.73)">Target</text><text class="cls-1" transform="translate(594.02 169.73)">Target</text><text class="cls-8" transform="translate(809.82 255.19)">Command</text><text class="cls-8" transform="translate(280.82 255.19)">Command</text><text class="cls-9" transform="translate(56.59 56.02)">&lt;pre id=&quot;typewriter&quot;&gt;</text><text class="cls-9" transform="translate(703.07 56.59)">&lt;span id=&quot;cursor&quot;&gt;&lt;/span&gt;&lt;/pre&gt;</text><line class="cls-10" x1="174" y1="68" x2="174" y2="97"/><line class="cls-10" x1="872" y1="68" x2="872" y2="97"/><line class="cls-10" x1="908" y1="68" x2="908" y2="97"/><text class="cls-9" transform="translate(873.25 89.08)">...</text><line class="cls-10" x1="141" y1="68" x2="141" y2="97"/><text class="cls-9" transform="translate(141.25 89.08)">...</text><path class="cls-11" d="M935.71,74.1C930.11,61.46,906.87,52,879,52" transform="translate(-94 -37)"/><path class="cls-4" d="M937,80a30.21,30.21,0,0,1,2.63-9.42l-4.22,2.78-5-.56A30.23,30.23,0,0,1,937,80Z" transform="translate(-94 -37)"/><path class="cls-12" d="M304,71" transform="translate(-94 -37)"/><path class="cls-11" d="M305.52,74.81c9.18-12.74,48.63-22.31,96-22.31" transform="translate(-94 -37)"/><path class="cls-4" d="M303.5,80.5A30.15,30.15,0,0,1,311,74.25L306,74.14l-3.81-3.33A30,30,0,0,1,303.5,80.5Z" transform="translate(-94 -37)"/><text class="cls-9" transform="translate(311.99 19.6)">Sheet.htmlElement</text><rect class="cls-11" x="307.5" y="0.5" width="195" height="26" rx="11.98"/><text class="cls-9" transform="translate(647.99 19.6)">Sheet.cursor</text><rect class="cls-11" x="640.5" y="0.5" width="141" height="26" rx="11.1"/><text class="cls-1" transform="translate(5.02 168.73)">Sheet.targets[] :</text><rect class="cls-5" x="0.5" y="145.5" width="172" height="32" rx="13.9"/><text class="cls-8" transform="translate(4.82 263.19)">Sheet.commands[] :</text><rect class="cls-7" x="0.5" y="241.5" width="182" height="32" rx="13.9"/><text class="cls-8" transform="translate(286.04 275.2)">(Type)</text><text class="cls-8" transform="translate(805.04 275.2)">(Delete)</text></svg>