<svg id="Layer_1" data-name="Layer 1" xmlns="http://www.w3.org/2000/svg" viewBox="0 0 1092 334"><defs><style>.cls-1{font-size:36px;}.cls-1,.cls-3,.cls-4{fill:#0071bc;}.cls-1,.cls-2,.cls-3{stroke:#0071bc;}.cls-1,.cls-3{font-family:FiraCode-Regular, Fira Code;}.cls-2,.cls-5{fill:none;}.cls-2{stroke-miterlimit:10;}.cls-3{font-size:28.87px;}</style></defs><title>typewriter-static-methods</title><text class="cls-1" transform="translate(436.21 186.7)">Typewriter</text><rect class="cls-2" x="424.5" y="153" width="243.5" height="49" rx="22.45"/><text class="cls-1" transform="translate(134.96 314.19)">Sheet</text><rect class="cls-2" x="124" y="282" width="129" height="42" rx="19.82"/><text class="cls-3" transform="translate(204.46 41.98)">HTMLElements</text><rect class="cls-2" x="189" y="10.21" width="240" height="46.09" rx="21.25"/><line class="cls-2" x1="189" y1="177.5" x2="189" y2="273.46"/><path class="cls-4" d="M353.5,400a30.1,30.1,0,0,0-4.76-8.55l4.76,1.72,4.75-1.72A30.31,30.31,0,0,0,353.5,400Z" transform="translate(-164.5 -120.5)"/><line class="cls-2" x1="188.5" y1="177" x2="260.5" y2="177"/><line class="cls-2" x1="352.5" y1="178" x2="424.5" y2="178"/><text class="cls-1" transform="translate(739.52 205.17)">type</text><text class="cls-1" transform="translate(264.66 189.15)">feed</text><text class="cls-1" transform="translate(862.11 170.08)">reset</text><line class="cls-2" x1="309" y1="61" x2="309" y2="152.96"/><path class="cls-4" d="M473.5,279.5a30.1,30.1,0,0,0-4.76-8.55l4.76,1.72,4.75-1.72A30.31,30.31,0,0,0,473.5,279.5Z" transform="translate(-164.5 -120.5)"/><line class="cls-2" x1="662" y1="161" x2="862" y2="161"/><line class="cls-2" x1="662" y1="195" x2="735" y2="195"/><line class="cls-2" x1="253" y1="304.5" x2="914.5" y2="304.5"/><line class="cls-2" x1="914.5" y1="304.5" x2="914.5" y2="183.04"/><path class="cls-4" d="M1079,297.5a30.1,30.1,0,0,0,4.76,8.55l-4.76-1.72-4.75,1.72A30.31,30.31,0,0,0,1079,297.5Z" transform="translate(-164.5 -120.5)"/><line class="cls-2" x1="779" y1="304.5" x2="779" y2="227.54"/><path class="cls-4" d="M943.5,342a30.1,30.1,0,0,0,4.76,8.55l-4.76-1.72-4.75,1.72A30.31,30.31,0,0,0,943.5,342Z" transform="translate(-164.5 -120.5)"/><rect class="cls-5" width="1092" height="334"/></svg>