<svg id="Layer_1" data-name="Layer 1" xmlns="http://www.w3.org/2000/svg" viewBox="0 0 872.5 317.98"><defs><style>.cls-1,.cls-2,.cls-4,.cls-5{isolation:isolate;}.cls-1,.cls-2,.cls-7{font-size:36px;}.cls-1,.cls-4,.cls-6,.cls-7{fill:#0071bc;}.cls-1,.cls-2,.cls-4,.cls-5,.cls-7{font-family:FiraCode-Regular, Fira Code;}.cls-2,.cls-3,.cls-5,.cls-8{fill:none;}.cls-2,.cls-3,.cls-5,.cls-7,.cls-8{stroke:#0071bc;}.cls-3{stroke-miterlimit:10;}.cls-4,.cls-5{font-size:28.87px;}</style></defs><title>typewriter-static-methods</title><text class="cls-1" transform="translate(312.71 171.99)">Typewriter</text><text class="cls-2" transform="translate(312.71 171.99)">Typewriter</text><rect class="cls-3" x="301" y="138.29" width="243.5" height="49" rx="22.45"/><text class="cls-1" transform="translate(11.46 299.48)">Sheet</text><text class="cls-2" transform="translate(11.46 299.48)">Sheet</text><rect class="cls-3" x="0.5" y="267.29" width="129" height="42" rx="19.82"/><text class="cls-4" transform="translate(91.96 32.27)">HTMLElement</text><text class="cls-5" transform="translate(91.96 32.27)">HTMLElement</text><path class="cls-3" d="M356.3,232.21H535.7c10.66,0,19.3,9.51,19.3,21.25v3.59c0,11.74-8.64,21.25-19.3,21.25H356.3c-10.66,0-19.3-9.51-19.3-21.25v-3.59C337,241.72,345.64,232.21,356.3,232.21Z" transform="translate(-260.5 -231.71)"/><line class="cls-3" x1="65.5" y1="162.79" x2="65.5" y2="258.75"/><path class="cls-6" d="M326,496.5a30.16,30.16,0,0,0-4.76-8.55l4.76,1.72,4.75-1.72A30.13,30.13,0,0,0,326,496.5Z" transform="translate(-260.5 -231.71)"/><line class="cls-3" x1="65" y1="162.29" x2="137" y2="162.29"/><line class="cls-3" x1="229" y1="163.29" x2="301" y2="163.29"/><text class="cls-1" transform="translate(616.02 190.46)">type</text><text class="cls-2" transform="translate(616.02 190.46)">type</text><text class="cls-1" transform="translate(141.16 174.44)">feed</text><text class="cls-2" transform="translate(141.16 174.44)">feed</text><text class="cls-1" transform="translate(675.05 109)">reset</text><text class="cls-2" transform="translate(675.05 109)">reset</text><line class="cls-3" x1="185.5" y1="46.29" x2="185.5" y2="138.25"/><path class="cls-6" d="M446,376a30.16,30.16,0,0,0-4.76-8.55l4.76,1.72,4.75-1.72A30.13,30.13,0,0,0,446,376Z" transform="translate(-260.5 -231.71)"/><line class="cls-3" x1="499.1" y1="99.38" x2="674.95" y2="99.38"/><line class="cls-3" x1="538.5" y1="180.29" x2="611.5" y2="180.29"/><line class="cls-3" x1="129.5" y1="289.93" x2="805.5" y2="289.93"/><line class="cls-3" x1="725.84" y1="289.79" x2="725.84" y2="122.58"/><line class="cls-3" x1="805.87" y1="290.29" x2="805.87" y2="70.62"/><path class="cls-6" d="M1066.37,296.29a30.59,30.59,0,0,0,4.76,8.55l-4.76-1.72-4.75,1.72A30.31,30.31,0,0,0,1066.37,296.29Z" transform="translate(-260.5 -231.71)"/><path class="cls-6" d="M986.13,348.25a29.68,29.68,0,0,0,4.76,8.55l-4.76-1.72-4.75,1.72A30.37,30.37,0,0,0,986.13,348.25Z" transform="translate(-260.5 -231.71)"/><line class="cls-3" x1="655.5" y1="289.79" x2="655.5" y2="212.83"/><path class="cls-6" d="M916,438.5a30.16,30.16,0,0,0,4.76,8.55L916,445.33l-4.75,1.72A30.13,30.13,0,0,0,916,438.5Z" transform="translate(-260.5 -231.71)"/><line class="cls-3" x1="499.1" y1="99.38" x2="499.1" y2="138.25"/><line class="cls-3" x1="391.28" y1="46.29" x2="391.28" y2="138.25"/><text class="cls-7" transform="translate(741.52 57.03)">revert</text><line class="cls-8" x1="391" y1="45.79" x2="742" y2="45.79"/></svg>