<svg id="Layer_1" data-name="Layer 1" xmlns="http://www.w3.org/2000/svg" viewBox="0 0 849 322.99"><defs><style>.cls-1{font-size:36px;}.cls-1,.cls-3,.cls-4{fill:#0071bc;}.cls-1,.cls-2,.cls-3{stroke:#0071bc;}.cls-1,.cls-3{font-family:FiraCode-Regular, Fira Code;}.cls-2{fill:none;stroke-miterlimit:10;}.cls-3{font-size:28.87px;}</style></defs><title>typewriter-static-methods</title><text class="cls-1" transform="translate(312.71 176.99)">Typewriter</text><rect class="cls-2" x="301" y="143.29" width="243.5" height="49" rx="22.45"/><text class="cls-1" transform="translate(11.46 304.49)">Sheet</text><rect class="cls-2" x="0.5" y="272.29" width="129" height="42" rx="19.82"/><text class="cls-3" transform="translate(80.96 32.27)">HTMLElements</text><rect class="cls-2" x="65.5" y="0.5" width="240" height="46.09" rx="21.25"/><line class="cls-2" x1="65.5" y1="167.79" x2="65.5" y2="263.76"/><path class="cls-4" d="M353.5,400a30.1,30.1,0,0,0-4.76-8.55l4.76,1.72,4.75-1.72A30.31,30.31,0,0,0,353.5,400Z" transform="translate(-288 -130.21)"/><line class="cls-2" x1="65" y1="167.29" x2="137" y2="167.29"/><line class="cls-2" x1="229" y1="168.29" x2="301" y2="168.29"/><text class="cls-1" transform="translate(616.02 195.47)">type</text><text class="cls-1" transform="translate(141.16 179.44)">feed</text><text class="cls-1" transform="translate(738.61 160.37)">reset</text><line class="cls-2" x1="185.5" y1="51.29" x2="185.5" y2="143.26"/><path class="cls-4" d="M473.5,279.5a30.1,30.1,0,0,0-4.76-8.55l4.76,1.72,4.75-1.72A30.31,30.31,0,0,0,473.5,279.5Z" transform="translate(-288 -130.21)"/><line class="cls-2" x1="538.5" y1="151.29" x2="738.5" y2="151.29"/><line class="cls-2" x1="538.5" y1="185.29" x2="611.5" y2="185.29"/><line class="cls-2" x1="129.5" y1="294.79" x2="791" y2="294.79"/><line class="cls-2" x1="791" y1="294.79" x2="791" y2="173.33"/><path class="cls-4" d="M1079,297.5a30.1,30.1,0,0,0,4.76,8.55l-4.76-1.72-4.75,1.72A30.31,30.31,0,0,0,1079,297.5Z" transform="translate(-288 -130.21)"/><line class="cls-2" x1="655.5" y1="294.79" x2="655.5" y2="217.83"/><path class="cls-4" d="M943.5,342a30.1,30.1,0,0,0,4.76,8.55l-4.76-1.72-4.75,1.72A30.31,30.31,0,0,0,943.5,342Z" transform="translate(-288 -130.21)"/></svg>